<svg width="64" height="64" viewBox="0 0 64 64" fill="none" xmlns="http://www.w3.org/2000/svg">
<path fill-rule="evenodd" clip-rule="evenodd" d="M20.164 42H43.836C43.3681 39.199 41.922 36.6547 39.7548 34.8195C37.5876 32.9843 34.8398 31.9771 32 31.9771C29.1602 31.9771 26.4124 32.9843 24.2452 34.8195C22.078 36.6547 20.6319 39.199 20.164 42ZM16 44C16 39.7565 17.6857 35.6869 20.6863 32.6863C23.6869 29.6857 27.7565 28 32 28C36.2435 28 40.3131 29.6857 43.3137 32.6863C46.3143 35.6869 48 39.7565 48 44C48 44.5304 47.7893 45.0391 47.4142 45.4142C47.0391 45.7893 46.5304 46 46 46H18C17.4696 46 16.9609 45.7893 16.5858 45.4142C16.2107 45.0391 16 44.5304 16 44ZM32 12C32.5304 12 33.0391 12.2107 33.4142 12.5858C33.7893 12.9609 34 13.4696 34 14V22C34 22.5304 33.7893 23.0391 33.4142 23.4142C33.0391 23.7893 32.5304 24 32 24C31.4696 24 30.9609 23.7893 30.5858 23.4142C30.2107 23.0391 30 22.5304 30 22V14C30 13.4696 30.2107 12.9609 30.5858 12.5858C30.9609 12.2107 31.4696 12 32 12ZM64 44C64 44.5304 63.7893 45.0391 63.4142 45.4142C63.0391 45.7893 62.5304 46 62 46H54C53.4696 46 52.9609 45.7893 52.5858 45.4142C52.2107 45.0391 52 44.5304 52 44C52 43.4696 52.2107 42.9609 52.5858 42.5858C52.9609 42.2107 53.4696 42 54 42H62C62.5304 42 63.0391 42.2107 63.4142 42.5858C63.7893 42.9609 64 43.4696 64 44ZM12 44C12 44.5304 11.7893 45.0391 11.4142 45.4142C11.0391 45.7893 10.5304 46 10 46H2C1.46957 46 0.960859 45.7893 0.585786 45.4142C0.210714 45.0391 0 44.5304 0 44C0 43.4696 0.210714 42.9609 0.585786 42.5858C0.960859 42.2107 1.46957 42 2 42H10C10.5304 42 11.0391 42.2107 11.4142 42.5858C11.7893 42.9609 12 43.4696 12 44ZM54.628 21.372C55.0029 21.7471 55.2136 22.2557 55.2136 22.786C55.2136 23.3163 55.0029 23.8249 54.628 24.2L48.972 29.856C48.7875 30.047 48.5668 30.1994 48.3228 30.3042C48.0788 30.409 47.8164 30.4642 47.5508 30.4665C47.2852 30.4688 47.0219 30.4182 46.7761 30.3176C46.5303 30.2171 46.307 30.0686 46.1192 29.8808C45.9314 29.693 45.7829 29.4697 45.6824 29.2239C45.5818 28.9781 45.5312 28.7148 45.5335 28.4492C45.5358 28.1836 45.591 27.9212 45.6958 27.6772C45.8006 27.4332 45.953 27.2125 46.144 27.028L51.8 21.372C52.1751 20.9971 52.6837 20.7864 53.214 20.7864C53.7443 20.7864 54.2529 20.9971 54.628 21.372ZM17.856 29.856C17.4809 30.2309 16.9723 30.4416 16.442 30.4416C15.9117 30.4416 15.4031 30.2309 15.028 29.856L9.372 24.2C9.00768 23.8228 8.8061 23.3176 8.81065 22.7932C8.81521 22.2688 9.02555 21.7672 9.39636 21.3964C9.76718 21.0255 10.2688 20.8152 10.7932 20.8107C11.3176 20.8061 11.8228 21.0077 12.2 21.372L17.856 27.028C18.2309 27.4031 18.4416 27.9117 18.4416 28.442C18.4416 28.9723 18.2309 29.4809 17.856 29.856Z" fill="black"/>
</svg>
